<?xml version="1.0" encoding="iso-8859-1"?>
<!-- Generator: Adobe Illustrator 16.0.0, SVG Export Plug-In . SVG Version: 6.00 Build 0)  -->
<!DOCTYPE svg PUBLIC "-//W3C//DTD SVG 1.1//EN" "http://www.w3.org/Graphics/SVG/1.1/DTD/svg11.dtd">
<svg version="1.1" id="Capa_1" xmlns="http://www.w3.org/2000/svg" xmlns:xlink="http://www.w3.org/1999/xlink" x="0px" y="0px"
	 width="612px" height="612px" viewBox="0 0 612 612" style="enable-background:new 0 0 612 612;" xml:space="preserve">
<g>
	<g>
		<g>
			<path d="M66.929,210.32c5.28,0,9.564,4.284,9.564,9.564c0,5.28-4.284,9.564-9.564,9.564c-18.491,0-35.228-7.492-47.322-19.606
				l-0.598-0.658C7.233,197.129,0,180.651,0,162.539c0-5.28,4.284-9.564,9.564-9.564c5.28,0,9.564,4.284,9.564,9.564
				c0,12.971,5.141,24.747,13.45,33.295l0.538,0.478C41.763,204.96,53.738,210.32,66.929,210.32z"/>
			<path d="M66.929,516.409c-5.26,0-9.564-4.284-9.564-9.563c0-5.28,4.304-9.563,9.564-9.563h525.943V229.448H66.909
				c-5.26,0-9.564-4.284-9.564-9.564c0-5.28,4.284-9.564,9.564-9.564h535.268h0.259c5.28,0,9.564,4.284,9.564,9.564v286.702v0.239
				c0,5.261-4.284,9.563-9.564,9.563H66.929V516.409z"/>
			<path d="M57.424,277.268c0-5.24,4.264-9.524,9.524-9.524c5.26,0,9.524,4.264,9.524,9.524l-0.04,172.193
				c0,5.26-4.264,9.523-9.524,9.523c-5.24,0-9.524-4.265-9.524-9.523L57.424,277.268z"/>
			<path d="M430.322,286.832c5.279,0,9.563,4.284,9.563,9.564c0,5.28-4.284,9.564-9.563,9.564H143.441
				c-5.28,0-9.564-4.284-9.564-9.564c0-5.28,4.284-9.564,9.564-9.564H430.322z"/>
			<path d="M525.943,286.852c5.279,0,9.563,4.284,9.563,9.564c0,5.28-4.284,9.564-9.563,9.564h-38.218
				c-5.26,0-9.562-4.284-9.562-9.564c0-5.28,4.284-9.564,9.562-9.564H525.943z"/>
			<path d="M66.929,191.132c-5.241,0-9.524-4.264-9.524-9.524c0-5.26,4.264-9.524,9.524-9.524l497.25,0.04
				c5.261,0,9.524,4.264,9.524,9.524c0,5.26-4.265,9.524-9.524,9.524L66.929,191.132z"/>
			<path d="M66.929,95.631c5.28,0,9.564,4.284,9.564,9.564s-4.284,9.564-9.564,9.564c-13.19,0-25.146,5.36-33.793,13.987
				c-8.647,8.647-14.007,20.623-14.007,33.813c0,5.28-4.284,9.564-9.564,9.564c-5.28,0-9.565-4.303-9.565-9.564
				c0-18.471,7.492-35.228,19.606-47.322C31.701,103.143,48.438,95.631,66.929,95.631z"/>
			<path d="M66.929,114.639c-5.241,0-9.524-4.264-9.524-9.524c0-5.261,4.284-9.524,9.524-9.524l458.995,0.04
				c5.26,0,9.523,4.264,9.523,9.524s-4.265,9.524-9.523,9.524L66.929,114.639z"/>
			<path d="M66.929,152.876c-5.241,0-9.524-4.264-9.524-9.524c0-5.26,4.264-9.524,9.524-9.524l478.123,0.04
				c5.261,0,9.524,4.264,9.524,9.524c0,5.26-4.266,9.524-9.524,9.524L66.929,152.876z"/>
			<path d="M66.929,497.281c5.28,0,9.564,4.283,9.564,9.562c0,5.261-4.284,9.564-9.564,9.564c-18.491,0-35.228-7.513-47.322-19.586
				l-0.598-0.658C7.233,484.091,0,467.612,0,449.501c0-5.28,4.284-9.564,9.564-9.564c5.28,0,9.564,4.284,9.564,9.564
				c0,12.971,5.141,24.747,13.45,33.295l0.538,0.478C41.763,491.921,53.738,497.281,66.929,497.281z"/>
			<path d="M0.06,239.032c0-5.24,4.264-9.524,9.524-9.524c5.26,0,9.524,4.264,9.524,9.524l-0.02,210.469
				c0,5.26-4.264,9.523-9.524,9.523c-5.26,0-9.524-4.264-9.524-9.523L0.06,239.032z"/>
		</g>
	</g>
</g>
<g>
</g>
<g>
</g>
<g>
</g>
<g>
</g>
<g>
</g>
<g>
</g>
<g>
</g>
<g>
</g>
<g>
</g>
<g>
</g>
<g>
</g>
<g>
</g>
<g>
</g>
<g>
</g>
<g>
</g>
</svg>
