<?xml version="1.0" encoding="iso-8859-1"?>
<!-- Generator: Adobe Illustrator 16.0.0, SVG Export Plug-In . SVG Version: 6.00 Build 0)  -->
<!DOCTYPE svg PUBLIC "-//W3C//DTD SVG 1.1//EN" "http://www.w3.org/Graphics/SVG/1.1/DTD/svg11.dtd">
<svg version="1.1" id="Capa_1" xmlns="http://www.w3.org/2000/svg" xmlns:xlink="http://www.w3.org/1999/xlink" x="0px" y="0px"
	 width="440.043px" height="440.043px" viewBox="0 0 440.043 440.043" style="enable-background:new 0 0 440.043 440.043;"
	 xml:space="preserve">
<g>
	<g>
		<g>
			<path d="M290.244,378.801H82.221V61.241h208.022v28.334c3.476-0.41,7.01-0.627,10.593-0.627h0.147
				c3.125,0,6.214,0.161,9.259,0.474V30c0-16.542-13.459-30-30-30H92.221c-16.542,0-30,13.458-30,30v380.043
				c0,16.541,13.458,30,30,30h188.022c16.542,0,30-13.459,30-30v-58.949h-20L290.244,378.801L290.244,378.801z M186.233,418.521
				c-7.042,0-12.75-5.709-12.75-12.75c0-7.044,5.708-12.75,12.75-12.75s12.75,5.706,12.75,12.75
				C198.983,412.812,193.274,418.521,186.233,418.521z"/>
			<path d="M351.158,250.966c11.88-19.318,26.664-43.362,26.664-72.098c0-41.309-33.608-74.92-74.925-74.92h-0.148
				c-41.314,0-74.925,33.611-74.925,74.92c0,27.494,14.613,51.655,26.357,71.066c7.559,12.496,14.695,24.298,14.695,32.177
				l0.377,10.498c-0.618,1.121-0.979,2.405-0.979,3.778c0,2.951,4.129,4.237,4.032,6.872c-0.104,2.639-8.54,4.104-8.54,8.896
				c0,4.926,9.048,5.875,9.048,8.918c0,3.035-4.54,3.975-4.54,7.133c0,4.354,3.528,7.887,7.888,7.887h53.319
				c4.359,0,7.887-3.531,7.887-7.887c0-6.592-22.159-7.374-34.325-7.305c13.262-0.47,38.834-2.224,38.834-8.746
				c0-8.801-49.081-8.896-49.081-8.896s44.573,0.087,44.573-6.872c0-1.375-0.359-2.657-0.979-3.778l0.377-10.498
				C336.769,274.368,343.438,263.521,351.158,250.966z M331.674,154.7l-24.644,42.961l21.642,0.002c0.755,0,1.446,0.424,1.792,1.096
				c0.345,0.671,0.286,1.48-0.154,2.094l-37.395,52.256c-0.391,0.545-1.01,0.843-1.642,0.843c-0.331,0-0.666-0.082-0.974-0.251
				c-0.896-0.496-1.279-1.583-0.892-2.53l16.867-41.155l-22.064-0.021c-0.688-0.003-1.328-0.356-1.696-0.937
				c-0.369-0.582-0.416-1.31-0.124-1.934l25.394-54.284c0.333-0.708,1.045-1.16,1.826-1.16h20.315c0.718,0,1.384,0.382,1.743,1.005
				C332.027,153.308,332.031,154.076,331.674,154.7z"/>
		</g>
	</g>
</g>
<g>
</g>
<g>
</g>
<g>
</g>
<g>
</g>
<g>
</g>
<g>
</g>
<g>
</g>
<g>
</g>
<g>
</g>
<g>
</g>
<g>
</g>
<g>
</g>
<g>
</g>
<g>
</g>
<g>
</g>
</svg>
